<svg width="24" height="24" viewBox="0 0 24 24" fill="none" xmlns="http://www.w3.org/2000/svg">
<path fill-rule="evenodd" clip-rule="evenodd" d="M12 24C5.37258 24 -9.53674e-07 18.6274 -9.53674e-07 12C-9.53674e-07 5.37258 5.37258 0 12 0C18.6274 0 24 5.37258 24 12C24 18.6274 18.6274 24 12 24ZM9.81519 15.6294C9.52827 15.8972 9.52827 16.3314 9.81519 16.5992C10.1021 16.8669 10.5673 16.8669 10.8542 16.5992L15.2624 12.4849C15.5493 12.2171 15.5493 11.7829 15.2624 11.5151L10.8542 7.40084C10.5673 7.13305 10.1021 7.13305 9.81519 7.40084C9.52827 7.66863 9.52827 8.1028 9.81519 8.37059L13.7038 12L9.81519 15.6294Z" fill="white"/>
<mask id="mask0" mask-type="alpha" maskUnits="userSpaceOnUse" x="0" y="0" width="24" height="24">
<path fill-rule="evenodd" clip-rule="evenodd" d="M12 24C5.37258 24 -9.53674e-07 18.6274 -9.53674e-07 12C-9.53674e-07 5.37258 5.37258 0 12 0C18.6274 0 24 5.37258 24 12C24 18.6274 18.6274 24 12 24ZM9.81519 15.6294C9.52827 15.8972 9.52827 16.3314 9.81519 16.5992C10.1021 16.8669 10.5673 16.8669 10.8542 16.5992L15.2624 12.4849C15.5493 12.2171 15.5493 11.7829 15.2624 11.5151L10.8542 7.40084C10.5673 7.13305 10.1021 7.13305 9.81519 7.40084C9.52827 7.66863 9.52827 8.1028 9.81519 8.37059L13.7038 12L9.81519 15.6294Z" fill="white"/>
</mask>
<g mask="url(#mask0)">
<rect width="29.1512" height="28.8" transform="matrix(-1 0 0 1 24 0)" fill="#FE7733"/>
</g>
</svg>
