<svg width="7" height="12" viewBox="0 0 7 12" fill="none" xmlns="http://www.w3.org/2000/svg">
<path d="M0.251051 10.5368C-0.0836838 10.8715 -0.0836838 11.4142 0.251051 11.7489C0.585786 12.0837 1.1285 12.0837 1.46323 11.7489L6.60609 6.60609C6.94083 6.27136 6.94083 5.72864 6.60609 5.39391L1.46323 0.251051C1.1285 -0.0836838 0.585786 -0.0836838 0.251051 0.251051C-0.0836838 0.585786 -0.0836838 1.1285 0.251051 1.46323L4.78782 6L0.251051 10.5368Z" fill="white"/>
<mask id="mask0" mask-type="alpha" maskUnits="userSpaceOnUse" x="0" y="0" width="7" height="12">
<path d="M0.251051 10.5368C-0.0836838 10.8715 -0.0836838 11.4142 0.251051 11.7489C0.585786 12.0837 1.1285 12.0837 1.46323 11.7489L6.60609 6.60609C6.94083 6.27136 6.94083 5.72864 6.60609 5.39391L1.46323 0.251051C1.1285 -0.0836838 0.585786 -0.0836838 0.251051 0.251051C-0.0836838 0.585786 -0.0836838 1.1285 0.251051 1.46323L4.78782 6L0.251051 10.5368Z" fill="white"/>
</mask>
<g mask="url(#mask0)">
<rect width="7.08537" height="12" fill="white"/>
</g>
</svg>
