<svg width="10" height="6" viewBox="0 0 10 6" fill="none" xmlns="http://www.w3.org/2000/svg">
<path d="M1.21936 0.215187C0.940416 -0.0717289 0.488155 -0.0717289 0.209209 0.215187C-0.0697365 0.502103 -0.0697365 0.967285 0.209209 1.2542L4.49492 5.66236C4.77387 5.94928 5.22613 5.94928 5.50508 5.66236L9.79079 1.2542C10.0697 0.967285 10.0697 0.502103 9.79079 0.215187C9.51184 -0.0717289 9.05958 -0.0717289 8.78064 0.215187L5 4.10384L1.21936 0.215187Z" fill="#2F3640"/>
<mask id="mask0" mask-type="alpha" maskUnits="userSpaceOnUse" x="0" y="0" width="10" height="6">
<path d="M1.21936 0.215187C0.940416 -0.0717289 0.488155 -0.0717289 0.209209 0.215187C-0.0697365 0.502103 -0.0697365 0.967285 0.209209 1.2542L4.49492 5.66236C4.77387 5.94928 5.22613 5.94928 5.50508 5.66236L9.79079 1.2542C10.0697 0.967285 10.0697 0.502103 9.79079 0.215187C9.51184 -0.0717289 9.05958 -0.0717289 8.78064 0.215187L5 4.10384L1.21936 0.215187Z" fill="white"/>
</mask>
<g mask="url(#mask0)">
<rect x="10" width="6.07317" height="10" transform="rotate(90 10 0)" fill="#FE7733"/>
</g>
</svg>
