<svg width="24" height="24" viewBox="0 0 24 24" fill="none" xmlns="http://www.w3.org/2000/svg">
<path fill-rule="evenodd" clip-rule="evenodd" d="M12 24C18.6274 24 24 18.6274 24 12C24 5.37258 18.6274 0 12 0C5.37258 0 0 5.37258 0 12C0 18.6274 5.37258 24 12 24ZM14.1848 15.6294C14.4717 15.8972 14.4717 16.3314 14.1848 16.5992C13.8979 16.8669 13.4327 16.8669 13.1458 16.5992L8.73764 12.4849C8.45072 12.2171 8.45072 11.7829 8.73764 11.5151L13.1458 7.40084C13.4327 7.13305 13.8979 7.13305 14.1848 7.40084C14.4717 7.66863 14.4717 8.1028 14.1848 8.37059L10.2962 12L14.1848 15.6294Z" fill="white"/>
<mask id="mask0" mask-type="alpha" maskUnits="userSpaceOnUse" x="0" y="0" width="24" height="24">
<path fill-rule="evenodd" clip-rule="evenodd" d="M12 24C18.6274 24 24 18.6274 24 12C24 5.37258 18.6274 0 12 0C5.37258 0 0 5.37258 0 12C0 18.6274 5.37258 24 12 24ZM14.1848 15.6294C14.4717 15.8972 14.4717 16.3314 14.1848 16.5992C13.8979 16.8669 13.4327 16.8669 13.1458 16.5992L8.73764 12.4849C8.45072 12.2171 8.45072 11.7829 8.73764 11.5151L13.1458 7.40084C13.4327 7.13305 13.8979 7.13305 14.1848 7.40084C14.4717 7.66863 14.4717 8.1028 14.1848 8.37059L10.2962 12L14.1848 15.6294Z" fill="white"/>
</mask>
<g mask="url(#mask0)">
<rect width="29.1512" height="28.8" fill="#FE7733"/>
</g>
</svg>
