<svg width="11" height="6" viewBox="0 0 11 6" fill="none" xmlns="http://www.w3.org/2000/svg">
<path d="M1.71936 0.679322C1.44042 0.440226 0.988155 0.440226 0.709209 0.679322C0.430264 0.918419 0.430264 1.30607 0.709209 1.54517L4.99492 5.21864C5.27387 5.45773 5.72613 5.45773 6.00508 5.21864L10.2908 1.54517C10.5697 1.30607 10.5697 0.918419 10.2908 0.679322C10.0118 0.440226 9.55958 0.440226 9.28064 0.679322L5.5 3.91987L1.71936 0.679322Z" fill="#2F3640"/>
<mask id="mask0" mask-type="alpha" maskUnits="userSpaceOnUse" x="0" y="0" width="11" height="6">
<path d="M1.71936 0.679322C1.44042 0.440226 0.988155 0.440226 0.709209 0.679322C0.430264 0.918419 0.430264 1.30607 0.709209 1.54517L4.99492 5.21864C5.27387 5.45773 5.72613 5.45773 6.00508 5.21864L10.2908 1.54517C10.5697 1.30607 10.5697 0.918419 10.2908 0.679322C10.0118 0.440226 9.55958 0.440226 9.28064 0.679322L5.5 3.91987L1.71936 0.679322Z" fill="white"/>
</mask>
<g mask="url(#mask0)">
<rect x="10.5" y="0.5" width="5.06098" height="10" transform="rotate(90 10.5 0.5)" fill="#363E4A"/>
</g>
</svg>
