<svg width="7" height="12" viewBox="0 0 7 12" fill="none" xmlns="http://www.w3.org/2000/svg">
<path d="M0.245928 10.5368C-0.0819759 10.8715 -0.0819759 11.4142 0.245928 11.7489C0.573832 12.0837 1.10547 12.0837 1.43337 11.7489L6.47127 6.60609C6.79918 6.27136 6.79918 5.72864 6.47127 5.39391L1.43337 0.251051C1.10547 -0.0836838 0.573832 -0.0836838 0.245928 0.251051C-0.0819759 0.585786 -0.0819759 1.1285 0.245928 1.46323L4.69011 6L0.245928 10.5368Z" fill="#2F3640"/>
<mask id="mask0" mask-type="alpha" maskUnits="userSpaceOnUse" x="0" y="0" width="7" height="12">
<path d="M0.245928 10.5368C-0.0819759 10.8715 -0.0819759 11.4142 0.245928 11.7489C0.573832 12.0837 1.10547 12.0837 1.43337 11.7489L6.47127 6.60609C6.79918 6.27136 6.79918 5.72864 6.47127 5.39391L1.43337 0.251051C1.10547 -0.0836838 0.573832 -0.0836838 0.245928 0.251051C-0.0819759 0.585786 -0.0819759 1.1285 0.245928 1.46323L4.69011 6L0.245928 10.5368Z" fill="white"/>
</mask>
<g mask="url(#mask0)">
<rect width="6.94077" height="12" fill="#363E4A"/>
</g>
</svg>
