<svg width="500" height="440" viewBox="0 0 500 440" fill="none" xmlns="http://www.w3.org/2000/svg">
<path fill-rule="evenodd" clip-rule="evenodd" d="M15.5374 0H105.822C112.121 0 118 4.53405 118 11.129C118 17.724 112.541 22.6703 106.242 22.6703H23.516V103.459C23.516 110.054 18.4769 115 11.758 115C5.03915 115 0 109.642 0 103.459V15.2509C0 6.59498 6.71886 0 15.5374 0ZM393.758 0H484.043C492.861 0 500 6.71886 500 15.5374V106.242C500 112.961 494.961 118 488.242 118C481.523 118 476.484 112.541 476.484 106.242V23.516H393.758C387.039 23.516 382 18.4769 382 11.758C382 5.03915 387.459 0 393.758 0ZM488.242 322C481.943 322 476.484 327.039 476.484 333.758V416.484H393.758C387.459 416.484 382 421.523 382 428.242C382 434.961 387.039 440 393.758 440H484.043C492.861 440 500 432.861 500 424.043V333.338C500 327.039 494.541 322 488.242 322ZM25.5893 416.904H106.5C112.661 416.904 118 421.523 118 428.242C118 434.961 112.661 440 106.5 440H18.6071C9.98214 440 3 432.861 3 424.043V333.758C3 327.459 7.51786 322 14.0893 322C20.6607 322 25.5893 327.459 25.5893 333.758V416.904Z" fill="#F5F5F5"/>
</svg>
