<svg width="14" height="14" viewBox="0 0 14 14" fill="none" xmlns="http://www.w3.org/2000/svg">
<path fill-rule="evenodd" clip-rule="evenodd" d="M13.034 11.3841C13.3464 11.6965 13.3464 12.203 13.034 12.5154L12.5154 13.034C12.203 13.3464 11.6965 13.3464 11.384 13.034L6.99998 8.64992L2.61592 13.034C2.3035 13.3464 1.79697 13.3464 1.48455 13.034L0.966004 12.5154C0.653585 12.203 0.653585 11.6965 0.966004 11.3841L5.35007 7L0.966004 2.61594C0.653585 2.30352 0.653585 1.79699 0.966004 1.48457L1.48455 0.966023C1.79697 0.653604 2.3035 0.653604 2.61592 0.966023L6.99998 5.35009L11.384 0.966024C11.6965 0.653605 12.203 0.653604 12.5154 0.966024L13.034 1.48457C13.3464 1.79699 13.3464 2.30352 13.034 2.61594L8.6499 7L13.034 11.3841Z" fill="#2F3640"/>
<mask id="mask0" mask-type="alpha" maskUnits="userSpaceOnUse" x="0" y="0" width="14" height="14">
<path fill-rule="evenodd" clip-rule="evenodd" d="M13.034 11.3841C13.3464 11.6965 13.3464 12.203 13.034 12.5154L12.5154 13.034C12.203 13.3464 11.6965 13.3464 11.384 13.034L6.99998 8.64992L2.61592 13.034C2.3035 13.3464 1.79697 13.3464 1.48455 13.034L0.966004 12.5154C0.653585 12.203 0.653585 11.6965 0.966004 11.3841L5.35007 7L0.966004 2.61594C0.653585 2.30352 0.653585 1.79699 0.966004 1.48457L1.48455 0.966023C1.79697 0.653604 2.3035 0.653604 2.61592 0.966023L6.99998 5.35009L11.384 0.966024C11.6965 0.653605 12.203 0.653604 12.5154 0.966024L13.034 1.48457C13.3464 1.79699 13.3464 2.30352 13.034 2.61594L8.6499 7L13.034 11.3841Z" fill="white"/>
</mask>
<g mask="url(#mask0)">
<rect width="14.1707" height="14" fill="#363E4A"/>
</g>
</svg>
