<svg width="10" height="10" viewBox="0 0 10 10" fill="none" xmlns="http://www.w3.org/2000/svg">
<path fill-rule="evenodd" clip-rule="evenodd" d="M9.14822 2.03015C9.46064 1.71773 9.46064 1.2112 9.14822 0.89878L9.10108 0.851639C8.78866 0.53922 8.28213 0.53922 7.96971 0.85164L4.99986 3.82149L2.03001 0.85164C1.71759 0.53922 1.21106 0.53922 0.898643 0.851639L0.851502 0.89878C0.539083 1.2112 0.539083 1.71773 0.851502 2.03015L3.82135 5L0.851502 7.96985C0.539083 8.28227 0.539083 8.7888 0.851502 9.10122L0.898643 9.14836C1.21106 9.46078 1.71759 9.46078 2.03001 9.14836L4.99986 6.17851L7.96971 9.14836C8.28213 9.46078 8.78866 9.46078 9.10108 9.14836L9.14822 9.10122C9.46064 8.7888 9.46064 8.28227 9.14822 7.96985L6.17837 5L9.14822 2.03015Z" fill="#2F3640"/>
<mask id="mask0" mask-type="alpha" maskUnits="userSpaceOnUse" x="0" y="0" width="10" height="10">
<path fill-rule="evenodd" clip-rule="evenodd" d="M9.14822 2.03015C9.46064 1.71773 9.46064 1.2112 9.14822 0.89878L9.10108 0.851639C8.78866 0.53922 8.28213 0.53922 7.96971 0.85164L4.99986 3.82149L2.03001 0.85164C1.71759 0.53922 1.21106 0.53922 0.898643 0.851639L0.851502 0.89878C0.539083 1.2112 0.539083 1.71773 0.851502 2.03015L3.82135 5L0.851502 7.96985C0.539083 8.28227 0.539083 8.7888 0.851502 9.10122L0.898643 9.14836C1.21106 9.46078 1.71759 9.46078 2.03001 9.14836L4.99986 6.17851L7.96971 9.14836C8.28213 9.46078 8.78866 9.46078 9.10108 9.14836L9.14822 9.10122C9.46064 8.7888 9.46064 8.28227 9.14822 7.96985L6.17837 5L9.14822 2.03015Z" fill="white"/>
</mask>
<g mask="url(#mask0)">
<rect width="10.122" height="10" fill="#363E4A"/>
</g>
</svg>
