<svg width="15" height="10" viewBox="0 0 15 10" fill="none" xmlns="http://www.w3.org/2000/svg">
<path fill-rule="evenodd" clip-rule="evenodd" d="M14.0964 3.95224C12.7004 1.58329 10.0968 0 7.13049 0C4.16292 0 1.5599 1.5844 0.164557 3.95224C-0.0548525 4.32456 -0.0548525 4.78663 0.164557 5.15895C1.56057 7.52788 4.16416 9.11117 7.13049 9.11117C10.0981 9.11117 12.7011 7.52676 14.0964 5.15893C14.3158 4.78662 14.3158 4.32455 14.0964 3.95224ZM7.13049 7.92275C4.59135 7.92275 2.37458 6.56843 1.18842 4.55558C2.28169 2.70035 4.25049 1.40456 6.54029 1.213C6.78283 1.46269 6.93242 1.80317 6.93242 2.17876C6.93242 2.94449 6.31167 3.56524 5.54594 3.56524C4.7802 3.56524 4.15946 2.94449 4.15946 2.17876L4.15948 2.17772C3.90677 2.65024 3.76332 3.19 3.76332 3.76331C3.76332 5.62295 5.27085 7.13048 7.13049 7.13048C8.99013 7.13048 10.4977 5.62295 10.4977 3.76331C10.4977 2.99502 10.2402 2.28698 9.80702 1.72035C11.1836 2.29359 12.33 3.29552 13.0726 4.55558C11.8864 6.56843 9.66963 7.92275 7.13049 7.92275Z" fill="#BBBBBB"/>
<mask id="mask0" mask-type="alpha" maskUnits="userSpaceOnUse" x="0" y="0" width="15" height="10">
<path fill-rule="evenodd" clip-rule="evenodd" d="M14.0964 3.95224C12.7004 1.58329 10.0968 0 7.13049 0C4.16292 0 1.5599 1.5844 0.164557 3.95224C-0.0548525 4.32456 -0.0548525 4.78663 0.164557 5.15895C1.56057 7.52788 4.16416 9.11117 7.13049 9.11117C10.0981 9.11117 12.7011 7.52676 14.0964 5.15893C14.3158 4.78662 14.3158 4.32455 14.0964 3.95224ZM7.13049 7.92275C4.59135 7.92275 2.37458 6.56843 1.18842 4.55558C2.28169 2.70035 4.25049 1.40456 6.54029 1.213C6.78283 1.46269 6.93242 1.80317 6.93242 2.17876C6.93242 2.94449 6.31167 3.56524 5.54594 3.56524C4.7802 3.56524 4.15946 2.94449 4.15946 2.17876L4.15948 2.17772C3.90677 2.65024 3.76332 3.19 3.76332 3.76331C3.76332 5.62295 5.27085 7.13048 7.13049 7.13048C8.99013 7.13048 10.4977 5.62295 10.4977 3.76331C10.4977 2.99502 10.2402 2.28698 9.80702 1.72035C11.1836 2.29359 12.33 3.29552 13.0726 4.55558C11.8864 6.56843 9.66963 7.92275 7.13049 7.92275Z" fill="white"/>
</mask>
<g mask="url(#mask0)">
</g>
</svg>
