<svg width="48" height="42" viewBox="0 0 48 42" fill="none" xmlns="http://www.w3.org/2000/svg">
<path fill-rule="evenodd" clip-rule="evenodd" d="M9 6C9 9.31371 11.6863 12 15 12C16.5913 12 18.1174 11.3679 19.2426 10.2426C20.3679 9.11742 21 7.5913 21 6C21 2.68629 18.3137 0 15 0C11.6863 0 9 2.68629 9 6ZM12 6C12 4.34315 13.3431 3 15 3C15.7956 3 16.5587 3.31607 17.1213 3.87868C17.6839 4.44129 18 5.20435 18 6C18 7.65685 16.6569 9 15 9C13.3431 9 12 7.65685 12 6Z" fill="#363E4A"/>
<path fill-rule="evenodd" clip-rule="evenodd" d="M27 21C27 24.3137 29.6863 27 33 27C34.5913 27 36.1174 26.3679 37.2426 25.2426C38.3679 24.1174 39 22.5913 39 21C39 17.6863 36.3137 15 33 15C29.6863 15 27 17.6863 27 21ZM30 21C30 19.3431 31.3431 18 33 18C34.6569 18 36 19.3431 36 21C36 22.6569 34.6569 24 33 24C31.3431 24 30 22.6569 30 21Z" fill="#363E4A"/>
<path fill-rule="evenodd" clip-rule="evenodd" d="M9 36C9 39.3137 11.6863 42 15 42C18.3137 42 21 39.3137 21 36C21 32.6863 18.3137 30 15 30C11.6863 30 9 32.6863 9 36ZM12 36C12 34.3431 13.3431 33 15 33C16.6569 33 18 34.3431 18 36C18 37.6569 16.6569 39 15 39C13.3431 39 12 37.6569 12 36Z" fill="#363E4A"/>
<path d="M10.5 8H1.5C0.671573 8 0 7.32843 0 6.5C0 5.67157 0.671573 5 1.5 5H10.5C11.3284 5 12 5.67157 12 6.5C12 7.32843 11.3284 8 10.5 8Z" fill="#363E4A"/>
<path d="M22.5 23H1.5C0.671573 23 0 22.3284 0 21.5C0 20.6716 0.671573 20 1.5 20H22.5C23.3284 20 24 20.6716 24 21.5C24 22.3284 23.3284 23 22.5 23Z" fill="#363E4A"/>
<path d="M10.5 38H1.5C0.671573 38 0 37.3284 0 36.5C0 35.6716 0.671573 35 1.5 35H10.5C11.3284 35 12 35.6716 12 36.5C12 37.3284 11.3284 38 10.5 38Z" fill="#363E4A"/>
<path d="M46.5 38H25.5C24.6716 38 24 37.3284 24 36.5C24 35.6716 24.6716 35 25.5 35H46.5C47.3284 35 48 35.6716 48 36.5C48 37.3284 47.3284 38 46.5 38Z" fill="#363E4A"/>
<path d="M46.5 23H37.5C36.6716 23 36 22.3284 36 21.5C36 20.6716 36.6716 20 37.5 20H46.5C47.3284 20 48 20.6716 48 21.5C48 22.3284 47.3284 23 46.5 23Z" fill="#363E4A"/>
<path d="M46.5 8H25.5C24.6716 8 24 7.32843 24 6.5C24 5.67157 24.6716 5 25.5 5H46.5C47.3284 5 48 5.67157 48 6.5C48 7.32843 47.3284 8 46.5 8Z" fill="#363E4A"/>
</svg>
