<svg width="20" height="20" viewBox="0 0 20 20" fill="none" xmlns="http://www.w3.org/2000/svg">
<path fill-rule="evenodd" clip-rule="evenodd" d="M16.2939 9.97C15.9541 10.59 15.2943 11 14.5446 11H7.09736L5.99777 13H17.9933V15H5.99777C4.47834 15 3.51869 13.37 4.24842 12.03L5.59792 9.59L1.99926 2H0V0H3.26879L4.20844 2H19.0029C19.7627 2 20.2425 2.82 19.8726 3.48L16.2939 9.97ZM17.3036 4H5.15808L7.5272 9H14.5446L17.3036 4ZM5.99777 16C4.89818 16 4.00851 16.9 4.00851 18C4.00851 19.1 4.89818 20 5.99777 20C7.09736 20 7.99703 19.1 7.99703 18C7.99703 16.9 7.09736 16 5.99777 16ZM14.0048 18C14.0048 16.9 14.8945 16 15.9941 16C17.0937 16 17.9933 16.9 17.9933 18C17.9933 19.1 17.0937 20 15.9941 20C14.8945 20 14.0048 19.1 14.0048 18Z" fill="#72B12C"/>
<mask id="mask0" mask-type="alpha" maskUnits="userSpaceOnUse" x="0" y="0" width="20" height="20">
<path fill-rule="evenodd" clip-rule="evenodd" d="M16.2939 9.97C15.9541 10.59 15.2943 11 14.5446 11H7.09736L5.99777 13H17.9933V15H5.99777C4.47834 15 3.51869 13.37 4.24842 12.03L5.59792 9.59L1.99926 2H0V0H3.26879L4.20844 2H19.0029C19.7627 2 20.2425 2.82 19.8726 3.48L16.2939 9.97ZM17.3036 4H5.15808L7.5272 9H14.5446L17.3036 4ZM5.99777 16C4.89818 16 4.00851 16.9 4.00851 18C4.00851 19.1 4.89818 20 5.99777 20C7.09736 20 7.99703 19.1 7.99703 18C7.99703 16.9 7.09736 16 5.99777 16ZM14.0048 18C14.0048 16.9 14.8945 16 15.9941 16C17.0937 16 17.9933 16.9 17.9933 18C17.9933 19.1 17.0937 20 15.9941 20C14.8945 20 14.0048 19.1 14.0048 18Z" fill="white"/>
</mask>
<g mask="url(#mask0)">
<rect width="20.2439" height="20" fill="#72B12C"/>
</g>
</svg>
