<svg width="22" height="22" viewBox="0 0 22 22" fill="none" xmlns="http://www.w3.org/2000/svg">
<path fill-rule="evenodd" clip-rule="evenodd" d="M2.75065 2.75H19.2507C19.7569 2.75 20.1673 3.16041 20.1673 3.66667V18.3333C20.1673 18.8396 19.7569 19.25 19.2507 19.25H2.75065C2.24439 19.25 1.83398 18.8396 1.83398 18.3333V3.66667C1.83398 3.16041 2.24439 2.75 2.75065 2.75ZM18.334 12.8333H15.2026C14.4738 14.5045 12.8239 15.585 11.0007 15.585C9.17743 15.585 7.52751 14.5045 6.79865 12.8333H3.66732V17.4167H18.334V12.8333ZM18.334 4.58333V11H13.7507C13.7507 12.5188 12.5194 13.75 11.0007 13.75C9.48187 13.75 8.25065 12.5188 8.25065 11H3.66732V4.58333H18.334Z" fill="black"/>
<mask id="mask0" mask-type="alpha" maskUnits="userSpaceOnUse" x="1" y="2" width="20" height="18">
<path fill-rule="evenodd" clip-rule="evenodd" d="M2.75065 2.75H19.2507C19.7569 2.75 20.1673 3.16041 20.1673 3.66667V18.3333C20.1673 18.8396 19.7569 19.25 19.2507 19.25H2.75065C2.24439 19.25 1.83398 18.8396 1.83398 18.3333V3.66667C1.83398 3.16041 2.24439 2.75 2.75065 2.75ZM18.334 12.8333H15.2026C14.4738 14.5045 12.8239 15.585 11.0007 15.585C9.17743 15.585 7.52751 14.5045 6.79865 12.8333H3.66732V17.4167H18.334V12.8333ZM18.334 4.58333V11H13.7507C13.7507 12.5188 12.5194 13.75 11.0007 13.75C9.48187 13.75 8.25065 12.5188 8.25065 11H3.66732V4.58333H18.334Z" fill="white"/>
</mask>
<g mask="url(#mask0)">
<rect width="22.2683" height="22" fill="#363E4A"/>
</g>
</svg>
