<svg width="59" height="59" viewBox="0 0 59 59" fill="none" xmlns="http://www.w3.org/2000/svg">
<g opacity="0.3">
<path fill-rule="evenodd" clip-rule="evenodd" d="M0 29.5C0 13.1828 13.1828 0 29.5 0C45.8172 0 59 13.1828 59 29.5C59 45.8172 45.8172 59 29.5 59C13.1828 59 0 45.8172 0 29.5ZM3.6875 29.5C3.6875 43.7891 15.2109 55.3125 29.5 55.3125C43.7891 55.3125 55.3125 43.7891 55.3125 29.5C55.3125 15.2109 43.7891 3.6875 29.5 3.6875C15.2109 3.6875 3.6875 15.2109 3.6875 29.5ZM31.4359 40.1016C30.7906 40.8391 30.2375 41.2078 29.8688 41.2078C29.6844 41.2078 29.5922 41.2078 29.4078 41.1156C29.2234 41.0234 29.2234 40.8391 29.2234 40.5625C29.2234 40.2859 29.3156 39.5484 29.5922 38.5344L29.5922 38.5343C29.6844 38.1655 29.8688 37.428 30.1453 36.4141L33.4641 24.3375L31.6203 24.7062C31.4392 24.7321 31.2218 24.7653 30.9701 24.8036L30.9698 24.8037L30.9696 24.8037C30.3246 24.902 29.4545 25.0346 28.3938 25.1672C27.4063 25.2834 26.6018 25.3629 25.9343 25.429L25.9342 25.429C25.5423 25.4677 25.1975 25.5018 24.8906 25.5359V26.6422C25.8125 26.6422 26.4578 26.7344 26.8266 26.9187C27.1953 27.1031 27.3797 27.3797 27.3797 27.9328V28.2094C27.3797 28.3016 27.3797 28.3937 27.2875 28.5781L24.7062 38.1656C24.5982 38.5976 24.4902 38.9664 24.4008 39.2719L24.4007 39.2719C24.3375 39.4879 24.2835 39.6723 24.2453 39.825C24.0609 40.5625 23.9688 41.1156 23.9688 41.4844C23.9688 42.4984 24.2453 43.2359 24.8906 43.6969C25.5359 44.1578 26.1812 44.4344 27.0109 44.4344C28.3938 44.4344 29.6844 43.8813 30.8828 42.6828C31.6203 41.9453 32.6344 40.5625 34.0172 38.5344L33.0953 37.8891C32.788 38.3807 32.3988 38.8724 32.0096 39.364L32.0095 39.3641C31.8149 39.6099 31.6203 39.8557 31.4359 40.1016ZM30.1453 15.5797C30.6984 15.0266 31.3437 14.75 32.1734 14.75C33.0031 14.75 33.6484 15.0266 34.2015 15.5797C34.7547 16.1328 35.0312 16.7781 35.0312 17.6078C35.0312 18.4375 34.7547 19.0828 34.2015 19.6359C33.6484 20.1891 33.0031 20.4656 32.1734 20.4656C31.3437 20.4656 30.6984 20.1891 30.1453 19.6359C29.5922 19.0828 29.3156 18.4375 29.3156 17.6078C29.3156 16.7781 29.5922 16.1328 30.1453 15.5797Z" fill="#0E65D8"/>
<mask id="mask0" mask-type="alpha" maskUnits="userSpaceOnUse" x="0" y="0" width="59" height="59">
<path fill-rule="evenodd" clip-rule="evenodd" d="M0 29.5C0 13.1828 13.1828 0 29.5 0C45.8172 0 59 13.1828 59 29.5C59 45.8172 45.8172 59 29.5 59C13.1828 59 0 45.8172 0 29.5ZM3.6875 29.5C3.6875 43.7891 15.2109 55.3125 29.5 55.3125C43.7891 55.3125 55.3125 43.7891 55.3125 29.5C55.3125 15.2109 43.7891 3.6875 29.5 3.6875C15.2109 3.6875 3.6875 15.2109 3.6875 29.5ZM31.4359 40.1016C30.7906 40.8391 30.2375 41.2078 29.8688 41.2078C29.6844 41.2078 29.5922 41.2078 29.4078 41.1156C29.2234 41.0234 29.2234 40.8391 29.2234 40.5625C29.2234 40.2859 29.3156 39.5484 29.5922 38.5344L29.5922 38.5343C29.6844 38.1655 29.8688 37.428 30.1453 36.4141L33.4641 24.3375L31.6203 24.7062C31.4392 24.7321 31.2218 24.7653 30.9701 24.8036L30.9698 24.8037L30.9696 24.8037C30.3246 24.902 29.4545 25.0346 28.3938 25.1672C27.4063 25.2834 26.6018 25.3629 25.9343 25.429L25.9342 25.429C25.5423 25.4677 25.1975 25.5018 24.8906 25.5359V26.6422C25.8125 26.6422 26.4578 26.7344 26.8266 26.9187C27.1953 27.1031 27.3797 27.3797 27.3797 27.9328V28.2094C27.3797 28.3016 27.3797 28.3937 27.2875 28.5781L24.7062 38.1656C24.5982 38.5976 24.4902 38.9664 24.4008 39.2719L24.4007 39.2719C24.3375 39.4879 24.2835 39.6723 24.2453 39.825C24.0609 40.5625 23.9688 41.1156 23.9688 41.4844C23.9688 42.4984 24.2453 43.2359 24.8906 43.6969C25.5359 44.1578 26.1812 44.4344 27.0109 44.4344C28.3938 44.4344 29.6844 43.8813 30.8828 42.6828C31.6203 41.9453 32.6344 40.5625 34.0172 38.5344L33.0953 37.8891C32.788 38.3807 32.3988 38.8724 32.0096 39.364L32.0095 39.3641C31.8149 39.6099 31.6203 39.8557 31.4359 40.1016ZM30.1453 15.5797C30.6984 15.0266 31.3437 14.75 32.1734 14.75C33.0031 14.75 33.6484 15.0266 34.2015 15.5797C34.7547 16.1328 35.0312 16.7781 35.0312 17.6078C35.0312 18.4375 34.7547 19.0828 34.2015 19.6359C33.6484 20.1891 33.0031 20.4656 32.1734 20.4656C31.3437 20.4656 30.6984 20.1891 30.1453 19.6359C29.5922 19.0828 29.3156 18.4375 29.3156 17.6078C29.3156 16.7781 29.5922 16.1328 30.1453 15.5797Z" fill="white"/>
</mask>
<g mask="url(#mask0)">
<rect width="59.7195" height="59" fill="#BBBBBB"/>
</g>
</g>
</svg>
