<svg width="14" height="14" viewBox="0 0 14 14" fill="none" xmlns="http://www.w3.org/2000/svg">
<path fill-rule="evenodd" clip-rule="evenodd" d="M13.0337 11.3841C13.3461 11.6965 13.3461 12.203 13.0337 12.5154L12.5152 13.034C12.2028 13.3464 11.6962 13.3464 11.3838 13.034L6.99974 8.64991L2.61568 13.034C2.30326 13.3464 1.79672 13.3464 1.48431 13.034L0.96576 12.5154C0.653341 12.203 0.653341 11.6965 0.96576 11.3841L5.34982 7L0.96576 2.61594C0.653341 2.30352 0.65334 1.79698 0.96576 1.48456L1.4843 0.966019C1.79672 0.6536 2.30326 0.6536 2.61568 0.966019L6.99974 5.35008L11.3838 0.96602C11.6962 0.653601 12.2028 0.6536 12.5152 0.966019L13.0337 1.48456C13.3461 1.79698 13.3461 2.30352 13.0337 2.61594L8.64965 7L13.0337 11.3841Z" fill="#2F3640"/>
<mask id="mask0" mask-type="alpha" maskUnits="userSpaceOnUse" x="0" y="0" width="14" height="14">
<path fill-rule="evenodd" clip-rule="evenodd" d="M13.0337 11.3841C13.3461 11.6965 13.3461 12.203 13.0337 12.5154L12.5152 13.034C12.2028 13.3464 11.6962 13.3464 11.3838 13.034L6.99974 8.64991L2.61568 13.034C2.30326 13.3464 1.79672 13.3464 1.48431 13.034L0.96576 12.5154C0.653341 12.203 0.653341 11.6965 0.96576 11.3841L5.34982 7L0.96576 2.61594C0.653341 2.30352 0.65334 1.79698 0.96576 1.48456L1.4843 0.966019C1.79672 0.6536 2.30326 0.6536 2.61568 0.966019L6.99974 5.35008L11.3838 0.96602C11.6962 0.653601 12.2028 0.6536 12.5152 0.966019L13.0337 1.48456C13.3461 1.79698 13.3461 2.30352 13.0337 2.61594L8.64965 7L13.0337 11.3841Z" fill="white"/>
</mask>
<g mask="url(#mask0)">
<rect width="14.1707" height="14" fill="#363E4A"/>
</g>
</svg>
