<svg width="17" height="15" viewBox="0 0 17 15" fill="none" xmlns="http://www.w3.org/2000/svg">
<path fill-rule="evenodd" clip-rule="evenodd" d="M11.9 0C10.7016 0 9.57601 0.408413 8.68685 1.11462L8.5 1.27047L8.31315 1.11462C7.42399 0.408413 6.2984 0 5.1 0C2.28325 0 0 2.23495 0 4.99169C0 8.23643 2.49696 11.3404 7.31254 14.3901C8.03514 14.8477 8.96489 14.8477 9.68749 14.3901C14.5031 11.3404 17 8.23642 17 4.99169C17 2.23495 14.7167 0 11.9 0ZM14.7333 4.95184C14.7333 7.17227 12.8284 9.6266 8.8559 12.236L8.50002 12.4667L8.14413 12.236C4.17162 9.62662 2.26667 7.17228 2.26667 4.95184C2.26667 3.46876 3.4947 2.26667 5.00933 2.26667C6.01776 2.26667 6.92887 2.80314 7.40982 3.65157C7.8846 4.48911 9.1154 4.48911 9.59018 3.65157C10.0711 2.80314 10.9822 2.26667 11.9907 2.26667C13.5053 2.26667 14.7333 3.46876 14.7333 4.95184Z" fill="#363E4A"/>
<mask id="mask0" mask-type="alpha" maskUnits="userSpaceOnUse" x="0" y="0" width="17" height="15">
<path fill-rule="evenodd" clip-rule="evenodd" d="M11.9 0C10.7016 0 9.57601 0.408413 8.68685 1.11462L8.5 1.27047L8.31315 1.11462C7.42399 0.408413 6.2984 0 5.1 0C2.28325 0 0 2.23495 0 4.99169C0 8.23643 2.49696 11.3404 7.31254 14.3901C8.03514 14.8477 8.96489 14.8477 9.68749 14.3901C14.5031 11.3404 17 8.23642 17 4.99169C17 2.23495 14.7167 0 11.9 0ZM14.7333 4.95184C14.7333 7.17227 12.8284 9.6266 8.8559 12.236L8.50002 12.4667L8.14413 12.236C4.17162 9.62662 2.26667 7.17228 2.26667 4.95184C2.26667 3.46876 3.4947 2.26667 5.00933 2.26667C6.01776 2.26667 6.92887 2.80314 7.40982 3.65157C7.8846 4.48911 9.1154 4.48911 9.59018 3.65157C10.0711 2.80314 10.9822 2.26667 11.9907 2.26667C13.5053 2.26667 14.7333 3.46876 14.7333 4.95184Z" fill="white"/>
</mask>
<g mask="url(#mask0)">
<rect width="17.2073" height="15" fill="#363E4A"/>
</g>
</svg>
