<svg width="18" height="18" viewBox="0 0 18 18" fill="none" xmlns="http://www.w3.org/2000/svg">
<path fill-rule="evenodd" clip-rule="evenodd" d="M2.25 2.25H15.75C16.1642 2.25 16.5 2.58579 16.5 3V15C16.5 15.4142 16.1642 15.75 15.75 15.75H2.25C1.83579 15.75 1.5 15.4142 1.5 15V3C1.5 2.58579 1.83579 2.25 2.25 2.25ZM15 10.5H12.438C11.8417 11.8673 10.4917 12.7513 9 12.7513C7.50827 12.7513 6.15834 11.8673 5.562 10.5H3V14.25H15V10.5ZM15 3.75V9H11.25C11.25 10.2426 10.2426 11.25 9 11.25C7.75736 11.25 6.75 10.2426 6.75 9H3V3.75H15Z" fill="black"/>
<mask id="mask0" mask-type="alpha" maskUnits="userSpaceOnUse" x="1" y="2" width="16" height="14">
<path fill-rule="evenodd" clip-rule="evenodd" d="M2.25 2.25H15.75C16.1642 2.25 16.5 2.58579 16.5 3V15C16.5 15.4142 16.1642 15.75 15.75 15.75H2.25C1.83579 15.75 1.5 15.4142 1.5 15V3C1.5 2.58579 1.83579 2.25 2.25 2.25ZM15 10.5H12.438C11.8417 11.8673 10.4917 12.7513 9 12.7513C7.50827 12.7513 6.15834 11.8673 5.562 10.5H3V14.25H15V10.5ZM15 3.75V9H11.25C11.25 10.2426 10.2426 11.25 9 11.25C7.75736 11.25 6.75 10.2426 6.75 9H3V3.75H15Z" fill="white"/>
</mask>
<g mask="url(#mask0)">
<rect width="18.2195" height="18" fill="#363E4A"/>
</g>
</svg>
