<svg width="15" height="14" viewBox="0 0 15 14" fill="none" xmlns="http://www.w3.org/2000/svg">
<path fill-rule="evenodd" clip-rule="evenodd" d="M0 7C0 3.12812 3.14002 0 7.02662 0C10.9132 0 14.0532 3.12812 14.0532 7C14.0532 10.8719 10.9132 14 7.02662 14C3.14002 14 0 10.8719 0 7ZM0.878327 7C0.878327 10.3906 3.6231 13.125 7.02662 13.125C10.4301 13.125 13.1749 10.3906 13.1749 7C13.1749 3.60938 10.4301 0.875 7.02662 0.875C3.6231 0.875 0.878327 3.60938 0.878327 7ZM7.48774 9.51562C7.33403 9.69062 7.20228 9.77812 7.11445 9.77812C7.07053 9.77812 7.04857 9.77812 7.00466 9.75625C6.96074 9.73437 6.96074 9.69062 6.96074 9.625C6.96074 9.55937 6.9827 9.38437 7.04857 9.14375L7.04858 9.14371C7.07054 9.0562 7.11446 8.88122 7.18032 8.64062L7.97082 5.775L7.53165 5.8625C7.48851 5.86864 7.43671 5.8765 7.37675 5.88561L7.3767 5.88562C7.22305 5.90894 7.0158 5.94041 6.76312 5.97188C6.52792 5.99944 6.33631 6.01832 6.1773 6.03399L6.17729 6.03399L6.17719 6.034C6.08387 6.0432 6.00179 6.05129 5.92871 6.05937V6.32188C6.14829 6.32188 6.302 6.34375 6.38983 6.3875C6.47766 6.43125 6.52158 6.49687 6.52158 6.62812V6.69375C6.52158 6.71562 6.52158 6.7375 6.49962 6.78125L5.88479 9.05625C5.85907 9.15876 5.83334 9.24626 5.81203 9.31875L5.81202 9.31878C5.79695 9.37002 5.78409 9.41376 5.775 9.45C5.73108 9.625 5.70913 9.75625 5.70913 9.84375C5.70913 10.0844 5.775 10.2594 5.92871 10.3687C6.08241 10.4781 6.23612 10.5437 6.43374 10.5437C6.76312 10.5437 7.07053 10.4125 7.35599 10.1281C7.53165 9.95312 7.77319 9.625 8.10257 9.14375L7.88298 8.99062C7.80979 9.10729 7.71708 9.22395 7.62437 9.34062L7.6243 9.34071C7.57797 9.39901 7.53163 9.45732 7.48774 9.51562ZM7.18033 3.69688C7.31208 3.56562 7.46578 3.5 7.66341 3.5C7.86103 3.5 8.01474 3.56562 8.14649 3.69688C8.27824 3.82812 8.34411 3.98125 8.34411 4.17812C8.34411 4.375 8.27824 4.52812 8.14649 4.65937C8.01474 4.79062 7.86103 4.85625 7.66341 4.85625C7.46578 4.85625 7.31208 4.79062 7.18033 4.65937C7.04858 4.52812 6.9827 4.375 6.9827 4.17812C6.9827 3.98125 7.04858 3.82812 7.18033 3.69688Z" fill="#0E65D8"/>
<mask id="mask0" mask-type="alpha" maskUnits="userSpaceOnUse" x="0" y="0" width="15" height="14">
<path fill-rule="evenodd" clip-rule="evenodd" d="M0 7C0 3.12812 3.14002 0 7.02662 0C10.9132 0 14.0532 3.12812 14.0532 7C14.0532 10.8719 10.9132 14 7.02662 14C3.14002 14 0 10.8719 0 7ZM0.878327 7C0.878327 10.3906 3.6231 13.125 7.02662 13.125C10.4301 13.125 13.1749 10.3906 13.1749 7C13.1749 3.60938 10.4301 0.875 7.02662 0.875C3.6231 0.875 0.878327 3.60938 0.878327 7ZM7.48774 9.51562C7.33403 9.69062 7.20228 9.77812 7.11445 9.77812C7.07053 9.77812 7.04857 9.77812 7.00466 9.75625C6.96074 9.73437 6.96074 9.69062 6.96074 9.625C6.96074 9.55937 6.9827 9.38437 7.04857 9.14375L7.04858 9.14371C7.07054 9.0562 7.11446 8.88122 7.18032 8.64062L7.97082 5.775L7.53165 5.8625C7.48851 5.86864 7.43671 5.8765 7.37675 5.88561L7.3767 5.88562C7.22305 5.90894 7.0158 5.94041 6.76312 5.97188C6.52792 5.99944 6.33631 6.01832 6.1773 6.03399L6.17729 6.03399L6.17719 6.034C6.08387 6.0432 6.00179 6.05129 5.92871 6.05937V6.32188C6.14829 6.32188 6.302 6.34375 6.38983 6.3875C6.47766 6.43125 6.52158 6.49687 6.52158 6.62812V6.69375C6.52158 6.71562 6.52158 6.7375 6.49962 6.78125L5.88479 9.05625C5.85907 9.15876 5.83334 9.24626 5.81203 9.31875L5.81202 9.31878C5.79695 9.37002 5.78409 9.41376 5.775 9.45C5.73108 9.625 5.70913 9.75625 5.70913 9.84375C5.70913 10.0844 5.775 10.2594 5.92871 10.3687C6.08241 10.4781 6.23612 10.5437 6.43374 10.5437C6.76312 10.5437 7.07053 10.4125 7.35599 10.1281C7.53165 9.95312 7.77319 9.625 8.10257 9.14375L7.88298 8.99062C7.80979 9.10729 7.71708 9.22395 7.62437 9.34062L7.6243 9.34071C7.57797 9.39901 7.53163 9.45732 7.48774 9.51562ZM7.18033 3.69688C7.31208 3.56562 7.46578 3.5 7.66341 3.5C7.86103 3.5 8.01474 3.56562 8.14649 3.69688C8.27824 3.82812 8.34411 3.98125 8.34411 4.17812C8.34411 4.375 8.27824 4.52812 8.14649 4.65937C8.01474 4.79062 7.86103 4.85625 7.66341 4.85625C7.46578 4.85625 7.31208 4.79062 7.18033 4.65937C7.04858 4.52812 6.9827 4.375 6.9827 4.17812C6.9827 3.98125 7.04858 3.82812 7.18033 3.69688Z" fill="white"/>
</mask>
<g mask="url(#mask0)">
<rect width="14.2246" height="14" fill="#363E4A"/>
</g>
</svg>
