<svg width="40" height="30" viewBox="0 0 40 30" fill="none" xmlns="http://www.w3.org/2000/svg">
<path fill-rule="evenodd" clip-rule="evenodd" d="M32.25 11.325C31.1167 4.85625 26.0667 0 20 0C15.1833 0 11 3.075 8.91667 7.575C3.9 8.175 0 12.9563 0 18.75C0 24.9562 4.48333 30 10 30H31.6667C36.2667 30 40 25.8 40 20.625C40 15.675 36.5833 11.6625 32.25 11.325ZM31.6667 26.25H10C6.31667 26.25 3.33333 22.8937 3.33333 18.75C3.33333 14.9062 5.88333 11.7 9.26667 11.3062L11.05 11.1L11.8833 9.31875C13.4667 5.8875 16.5667 3.75 20 3.75C24.3667 3.75 28.1333 7.2375 28.9833 12.0562L29.4833 14.8687L32.0333 15.075C34.6333 15.2625 36.6667 17.7188 36.6667 20.625C36.6667 23.7188 34.4167 26.25 31.6667 26.25ZM17.5833 16.875H13.3333L20 9.375L26.6667 16.875H22.4167V22.5H17.5833V16.875Z" fill="#363E4A"/>
</svg>
