<svg width="19" height="15" viewBox="0 0 19 15" fill="none" xmlns="http://www.w3.org/2000/svg">
<path fill-rule="evenodd" clip-rule="evenodd" d="M19 0.8C19 0.358172 18.6418 0 18.2 0H0.799999C0.358171 0 0 0.358172 0 0.8V1.7C0 2.14183 0.358172 2.5 0.8 2.5H18.2C18.6418 2.5 19 2.14183 19 1.7V0.8ZM12.6667 7.05C12.6667 6.60817 12.3085 6.25 11.8667 6.25H0.800001C0.358173 6.25 0 6.60817 0 7.05V7.95C0 8.39183 0.358172 8.75 0.8 8.75H11.8667C12.3085 8.75 12.6667 8.39183 12.6667 7.95V7.05ZM14.4 12.5C14.8418 12.5 15.2 12.8582 15.2 13.3V14.2C15.2 14.6418 14.8418 15 14.4 15H0.8C0.358172 15 0 14.6418 0 14.2V13.3C0 12.8582 0.358172 12.5 0.8 12.5H14.4Z" fill="#222222"/>
<mask id="mask0" mask-type="alpha" maskUnits="userSpaceOnUse" x="0" y="0" width="19" height="15">
<path fill-rule="evenodd" clip-rule="evenodd" d="M19 0.8C19 0.358172 18.6418 0 18.2 0H0.799999C0.358171 0 0 0.358172 0 0.8V1.7C0 2.14183 0.358172 2.5 0.8 2.5H18.2C18.6418 2.5 19 2.14183 19 1.7V0.8ZM12.6667 7.05C12.6667 6.60817 12.3085 6.25 11.8667 6.25H0.800001C0.358173 6.25 0 6.60817 0 7.05V7.95C0 8.39183 0.358172 8.75 0.8 8.75H11.8667C12.3085 8.75 12.6667 8.39183 12.6667 7.95V7.05ZM14.4 12.5C14.8418 12.5 15.2 12.8582 15.2 13.3V14.2C15.2 14.6418 14.8418 15 14.4 15H0.8C0.358172 15 0 14.6418 0 14.2V13.3C0 12.8582 0.358172 12.5 0.8 12.5H14.4Z" fill="white"/>
</mask>
<g mask="url(#mask0)">
<rect width="19.2317" height="15" fill="white"/>
</g>
</svg>
