<svg width="18" height="18" viewBox="0 0 18 18" fill="none" xmlns="http://www.w3.org/2000/svg">
<path fill-rule="evenodd" clip-rule="evenodd" d="M11.7729 2.0255C10.4709 0.720212 8.73637 0 6.89445 0C5.05253 0 3.31804 0.720212 2.01594 2.02559C-0.671982 4.72004 -0.671982 9.10284 2.01595 11.7973C3.31889 13.1024 5.05335 13.8224 6.89497 13.8224C8.35385 13.8224 9.74961 13.3668 10.9185 12.5203L16.0503 17.6646C16.2663 17.8817 16.5576 18 16.8585 18C17.1583 18 17.4486 17.8826 17.6651 17.6662C18.1108 17.2216 18.1119 16.499 17.6667 16.0527L12.5246 10.8987C14.4406 8.18786 14.1664 4.42408 11.7729 2.0255ZM3.71718 3.71697C4.56827 2.86677 5.69642 2.4 6.89981 2.4C8.1032 2.4 9.23135 2.86677 10.0825 3.71701C11.8392 5.4717 11.8392 8.3283 10.0825 10.083C9.23135 10.9332 8.1032 11.4 6.89981 11.4C5.69642 11.4 4.56827 10.9332 3.71714 10.083C1.96095 8.32834 1.96095 5.47166 3.71718 3.71697Z" fill="#2F3640"/>
<mask id="mask0" mask-type="alpha" maskUnits="userSpaceOnUse" x="0" y="0" width="18" height="18">
<path fill-rule="evenodd" clip-rule="evenodd" d="M11.7729 2.0255C10.4709 0.720212 8.73637 0 6.89445 0C5.05253 0 3.31804 0.720212 2.01594 2.02559C-0.671982 4.72004 -0.671982 9.10284 2.01595 11.7973C3.31889 13.1024 5.05335 13.8224 6.89497 13.8224C8.35385 13.8224 9.74961 13.3668 10.9185 12.5203L16.0503 17.6646C16.2663 17.8817 16.5576 18 16.8585 18C17.1583 18 17.4486 17.8826 17.6651 17.6662C18.1108 17.2216 18.1119 16.499 17.6667 16.0527L12.5246 10.8987C14.4406 8.18786 14.1664 4.42408 11.7729 2.0255ZM3.71718 3.71697C4.56827 2.86677 5.69642 2.4 6.89981 2.4C8.1032 2.4 9.23135 2.86677 10.0825 3.71701C11.8392 5.4717 11.8392 8.3283 10.0825 10.083C9.23135 10.9332 8.1032 11.4 6.89981 11.4C5.69642 11.4 4.56827 10.9332 3.71714 10.083C1.96095 8.32834 1.96095 5.47166 3.71718 3.71697Z" fill="white"/>
</mask>
<g mask="url(#mask0)">
<rect width="18.2195" height="18" fill="#363E4A"/>
</g>
</svg>
