<svg width="24" height="24" viewBox="0 0 24 24" fill="none" xmlns="http://www.w3.org/2000/svg">
<path fill-rule="evenodd" clip-rule="evenodd" d="M0 12C0 5.3625 5.3625 0 12 0C18.6375 0 24 5.3625 24 12C24 18.6375 18.6375 24 12 24C5.3625 24 0 18.6375 0 12ZM1.5 12C1.5 17.8125 6.1875 22.5 12 22.5C17.8125 22.5 22.5 17.8125 22.5 12C22.5 6.1875 17.8125 1.5 12 1.5C6.1875 1.5 1.5 6.1875 1.5 12ZM12.7875 16.3125C12.525 16.6125 12.3 16.7625 12.15 16.7625C12.075 16.7625 12.0375 16.7625 11.9625 16.725C11.8875 16.6875 11.8875 16.6125 11.8875 16.5C11.8875 16.3875 11.925 16.0875 12.0375 15.675C12.075 15.525 12.15 15.225 12.2625 14.8125L13.6125 9.9L12.8625 10.05C12.7888 10.0605 12.7004 10.074 12.598 10.0896L12.5979 10.0896C12.3355 10.1296 11.9815 10.1836 11.55 10.2375C11.1483 10.2848 10.8211 10.3171 10.5495 10.344L10.5494 10.344C10.39 10.3598 10.2498 10.3736 10.125 10.3875V10.8375C10.5 10.8375 10.7625 10.875 10.9125 10.95C11.0625 11.025 11.1375 11.1375 11.1375 11.3625V11.475C11.1375 11.5125 11.1375 11.55 11.1 11.625L10.05 15.525C10.0061 15.7007 9.96213 15.8507 9.92574 15.975C9.9 16.0629 9.87803 16.1379 9.8625 16.2C9.7875 16.5 9.75 16.725 9.75 16.875C9.75 17.2875 9.8625 17.5875 10.125 17.775C10.3875 17.9625 10.65 18.075 10.9875 18.075C11.55 18.075 12.075 17.85 12.5625 17.3625C12.8625 17.0625 13.275 16.5 13.8375 15.675L13.4625 15.4125C13.3375 15.6125 13.1792 15.8125 13.0209 16.0125L13.0208 16.0125L13.0207 16.0127C12.9416 16.1126 12.8625 16.2126 12.7875 16.3125ZM12.2625 6.3375C12.4875 6.1125 12.75 6 13.0875 6C13.425 6 13.6875 6.1125 13.9125 6.3375C14.1375 6.5625 14.25 6.825 14.25 7.1625C14.25 7.5 14.1375 7.7625 13.9125 7.9875C13.6875 8.2125 13.425 8.325 13.0875 8.325C12.75 8.325 12.4875 8.2125 12.2625 7.9875C12.0375 7.7625 11.925 7.5 11.925 7.1625C11.925 6.825 12.0375 6.5625 12.2625 6.3375Z" fill="#0E65D8"/>
<mask id="mask0" mask-type="alpha" maskUnits="userSpaceOnUse" x="0" y="0" width="24" height="24">
<path fill-rule="evenodd" clip-rule="evenodd" d="M0 12C0 5.3625 5.3625 0 12 0C18.6375 0 24 5.3625 24 12C24 18.6375 18.6375 24 12 24C5.3625 24 0 18.6375 0 12ZM1.5 12C1.5 17.8125 6.1875 22.5 12 22.5C17.8125 22.5 22.5 17.8125 22.5 12C22.5 6.1875 17.8125 1.5 12 1.5C6.1875 1.5 1.5 6.1875 1.5 12ZM12.7875 16.3125C12.525 16.6125 12.3 16.7625 12.15 16.7625C12.075 16.7625 12.0375 16.7625 11.9625 16.725C11.8875 16.6875 11.8875 16.6125 11.8875 16.5C11.8875 16.3875 11.925 16.0875 12.0375 15.675C12.075 15.525 12.15 15.225 12.2625 14.8125L13.6125 9.9L12.8625 10.05C12.7888 10.0605 12.7004 10.074 12.598 10.0896L12.5979 10.0896C12.3355 10.1296 11.9815 10.1836 11.55 10.2375C11.1483 10.2848 10.8211 10.3171 10.5495 10.344L10.5494 10.344C10.39 10.3598 10.2498 10.3736 10.125 10.3875V10.8375C10.5 10.8375 10.7625 10.875 10.9125 10.95C11.0625 11.025 11.1375 11.1375 11.1375 11.3625V11.475C11.1375 11.5125 11.1375 11.55 11.1 11.625L10.05 15.525C10.0061 15.7007 9.96213 15.8507 9.92574 15.975C9.9 16.0629 9.87803 16.1379 9.8625 16.2C9.7875 16.5 9.75 16.725 9.75 16.875C9.75 17.2875 9.8625 17.5875 10.125 17.775C10.3875 17.9625 10.65 18.075 10.9875 18.075C11.55 18.075 12.075 17.85 12.5625 17.3625C12.8625 17.0625 13.275 16.5 13.8375 15.675L13.4625 15.4125C13.3375 15.6125 13.1792 15.8125 13.0209 16.0125L13.0208 16.0125L13.0207 16.0127C12.9416 16.1126 12.8625 16.2126 12.7875 16.3125ZM12.2625 6.3375C12.4875 6.1125 12.75 6 13.0875 6C13.425 6 13.6875 6.1125 13.9125 6.3375C14.1375 6.5625 14.25 6.825 14.25 7.1625C14.25 7.5 14.1375 7.7625 13.9125 7.9875C13.6875 8.2125 13.425 8.325 13.0875 8.325C12.75 8.325 12.4875 8.2125 12.2625 7.9875C12.0375 7.7625 11.925 7.5 11.925 7.1625C11.925 6.825 12.0375 6.5625 12.2625 6.3375Z" fill="white"/>
</mask>
<g mask="url(#mask0)">
<rect width="24.2927" height="24" fill="#0E65D8"/>
</g>
</svg>
