<svg width="12" height="13" viewBox="0 0 12 13" fill="none" xmlns="http://www.w3.org/2000/svg">
<path d="M4.03571 1.73661V2.08661H4.25448L4.35033 1.88996L4.03571 1.73661ZM4.24554 1.30615L4.56017 1.45952L4.56192 1.45581L4.24554 1.30615ZM7.75446 1.30615L7.43953 1.45885L7.43985 1.45951L7.75446 1.30615ZM7.96429 1.73661L7.64967 1.88996L7.74552 2.08661H7.96429V1.73661ZM10.2679 3.45306L10.6172 3.47424L10.6173 3.4727L10.2679 3.45306ZM9.8125 10.9641L10.1618 10.9856L10.1619 10.9853L9.8125 10.9641ZM2.1875 10.9641L1.83814 10.9853L1.83816 10.9856L2.1875 10.9641ZM1.73214 3.45306L1.38269 3.4727L1.38278 3.47424L1.73214 3.45306ZM1.35 2.93359V2.28906H0.65V2.93359H1.35ZM1.35 2.28906C1.35 2.16598 1.44221 2.08661 1.53571 2.08661V1.38661C1.03547 1.38661 0.65 1.79984 0.65 2.28906H1.35ZM1.53571 2.08661H4.03571V1.38661H1.53571V2.08661ZM4.35033 1.88996L4.56015 1.45951L3.93092 1.1528L3.7211 1.58325L4.35033 1.88996ZM4.56192 1.45581C4.5943 1.38736 4.65764 1.35 4.72321 1.35V0.65C4.38254 0.65 4.07534 0.847433 3.92915 1.15649L4.56192 1.45581ZM4.72321 1.35H7.27455V0.65H4.72321V1.35ZM7.27455 1.35C7.33956 1.35 7.40475 1.38711 7.43953 1.45885L8.0694 1.15346C7.92114 0.847681 7.6158 0.65 7.27455 0.65V1.35ZM7.43985 1.45951L7.64967 1.88996L8.2789 1.58325L8.06908 1.1528L7.43985 1.45951ZM7.96429 2.08661H10.4643V1.38661H7.96429V2.08661ZM10.4643 2.08661C10.5578 2.08661 10.65 2.16598 10.65 2.28906H11.35C11.35 1.79984 10.9645 1.38661 10.4643 1.38661V2.08661ZM10.65 2.28906V2.93359H11.35V2.28906H10.65ZM10.65 2.93359C10.65 2.90245 10.6761 2.85982 10.7321 2.85982V3.55982C11.0828 3.55982 11.35 3.26859 11.35 2.93359H10.65ZM10.7321 2.85982H1.26786V3.55982H10.7321V2.85982ZM1.26786 2.85982C1.32391 2.85982 1.35 2.90245 1.35 2.93359H0.65C0.65 3.26859 0.917162 3.55982 1.26786 3.55982V2.85982ZM9.9185 3.43188L9.46314 10.943L10.1619 10.9853L10.6172 3.47424L9.9185 3.43188ZM9.46316 10.9427C9.43819 11.3499 9.1138 11.65 8.7433 11.65V12.35C9.50227 12.35 10.1154 11.7432 10.1618 10.9856L9.46316 10.9427ZM8.7433 11.65H3.2567V12.35H8.7433V11.65ZM3.2567 11.65C2.8862 11.65 2.56181 11.3499 2.53684 10.9427L1.83816 10.9856C1.88462 11.7432 2.49773 12.35 3.2567 12.35V11.65ZM2.53686 10.943L2.0815 3.43188L1.38278 3.47424L1.83814 10.9853L2.53686 10.943ZM2.08159 3.43341C2.08337 3.46501 2.05715 3.51071 2 3.51071V2.81071C1.63482 2.81071 1.36306 3.12344 1.38269 3.4727L2.08159 3.43341ZM2 3.51071H10.0022V2.81071H2V3.51071ZM10.0022 3.51071C9.94095 3.51071 9.91674 3.46305 9.91841 3.43341L10.6173 3.4727C10.6368 3.1254 10.3671 2.81071 10.0022 2.81071V3.51071Z" fill="#DB391F"/>
</svg>
