<svg width="24" height="20" viewBox="0 0 24 20" fill="none" xmlns="http://www.w3.org/2000/svg">
<path d="M11.7528 1.48616C12.9558 0.544551 14.4786 0 16.1 0C19.9109 0 23 2.97994 23 6.65559C23 10.9819 19.6218 15.1205 13.1066 19.1868C12.129 19.797 10.8711 19.797 9.89344 19.1868C3.37824 15.1206 0 10.9819 0 6.65559C0 2.97994 3.0891 0 6.9 0C8.52137 0 10.0442 0.544551 11.2472 1.48616L11.5 1.69396L11.7528 1.48616Z" fill="#363E4A"/>
<mask id="mask0" mask-type="alpha" maskUnits="userSpaceOnUse" x="0" y="0" width="23" height="20">
<path d="M11.7528 1.48616C12.9558 0.544551 14.4786 0 16.1 0C19.9109 0 23 2.97994 23 6.65559C23 10.9819 19.6218 15.1205 13.1066 19.1868C12.129 19.797 10.8711 19.797 9.89344 19.1868C3.37824 15.1206 0 10.9819 0 6.65559C0 2.97994 3.0891 0 6.9 0C8.52137 0 10.0442 0.544551 11.2472 1.48616L11.5 1.69396L11.7528 1.48616Z" fill="white"/>
</mask>
<g mask="url(#mask0)">
<rect width="23.2805" height="20" fill="#EB3454"/>
</g>
</svg>
