<svg width="15" height="15" viewBox="0 0 15 15" fill="none" xmlns="http://www.w3.org/2000/svg">
<path fill-rule="evenodd" clip-rule="evenodd" d="M9.81073 1.68792C8.72571 0.600177 7.28031 0 5.74537 0C4.21044 0 2.76503 0.600177 1.67995 1.68799C-0.559985 3.93337 -0.559985 7.5857 1.67996 9.83109C2.76574 10.9186 4.21113 11.5186 5.74581 11.5186C6.96154 11.5186 8.12468 11.139 9.09873 10.4336L13.3752 14.7205C13.5552 14.9014 13.798 15 14.0487 15C14.2985 15 14.5405 14.9022 14.7209 14.7218C15.0924 14.3513 15.0933 13.7492 14.7222 13.3772L10.4372 9.08222C12.0338 6.82322 11.8053 3.68673 9.81073 1.68792ZM3.09765 3.09747C3.80689 2.38898 4.74702 2 5.74984 2C6.75267 2 7.69279 2.38898 8.40207 3.0975C9.86597 4.55975 9.86597 6.94025 8.40208 8.40248C7.69279 9.11102 6.75267 9.5 5.74984 9.5C4.74702 9.5 3.80689 9.11102 3.09762 8.4025C1.63412 6.94029 1.63412 4.55971 3.09765 3.09747Z" fill="#2F3640"/>
<mask id="mask0" mask-type="alpha" maskUnits="userSpaceOnUse" x="0" y="0" width="15" height="15">
<path fill-rule="evenodd" clip-rule="evenodd" d="M9.81073 1.68792C8.72571 0.600177 7.28031 0 5.74537 0C4.21044 0 2.76503 0.600177 1.67995 1.68799C-0.559985 3.93337 -0.559985 7.5857 1.67996 9.83109C2.76574 10.9186 4.21113 11.5186 5.74581 11.5186C6.96154 11.5186 8.12468 11.139 9.09873 10.4336L13.3752 14.7205C13.5552 14.9014 13.798 15 14.0487 15C14.2985 15 14.5405 14.9022 14.7209 14.7218C15.0924 14.3513 15.0933 13.7492 14.7222 13.3772L10.4372 9.08222C12.0338 6.82322 11.8053 3.68673 9.81073 1.68792ZM3.09765 3.09747C3.80689 2.38898 4.74702 2 5.74984 2C6.75267 2 7.69279 2.38898 8.40207 3.0975C9.86597 4.55975 9.86597 6.94025 8.40208 8.40248C7.69279 9.11102 6.75267 9.5 5.74984 9.5C4.74702 9.5 3.80689 9.11102 3.09762 8.4025C1.63412 6.94029 1.63412 4.55971 3.09765 3.09747Z" fill="white"/>
</mask>
<g mask="url(#mask0)">
<rect width="15.1829" height="15" fill="white"/>
</g>
</svg>
