<svg width="17" height="17" viewBox="0 0 17 17" fill="none" xmlns="http://www.w3.org/2000/svg">
<path fill-rule="evenodd" clip-rule="evenodd" d="M13.8499 8.4745C13.561 9.0015 13.0002 9.35 12.3629 9.35H6.03276L5.09811 11.05H15.2943V12.75H5.09811C3.80659 12.75 2.99089 11.3645 3.61116 10.2255L4.75823 8.1515L1.69937 1.7H0V0H2.77847L3.57717 1.7H16.1525C16.7983 1.7 17.2061 2.397 16.8917 2.958L13.8499 8.4745ZM14.708 3.4H4.38437L6.39812 7.65H12.3629L14.708 3.4ZM5.09811 13.6C4.16345 13.6 3.40723 14.365 3.40723 15.3C3.40723 16.235 4.16345 17 5.09811 17C6.03276 17 6.79747 16.235 6.79747 15.3C6.79747 14.365 6.03276 13.6 5.09811 13.6ZM11.9041 15.3C11.9041 14.365 12.6603 13.6 13.595 13.6C14.5296 13.6 15.2943 14.365 15.2943 15.3C15.2943 16.235 14.5296 17 13.595 17C12.6603 17 11.9041 16.235 11.9041 15.3Z" fill="#1D1D1D"/>
<mask id="mask0" mask-type="alpha" maskUnits="userSpaceOnUse" x="0" y="0" width="17" height="17">
<path fill-rule="evenodd" clip-rule="evenodd" d="M13.8499 8.4745C13.561 9.0015 13.0002 9.35 12.3629 9.35H6.03276L5.09811 11.05H15.2943V12.75H5.09811C3.80659 12.75 2.99089 11.3645 3.61116 10.2255L4.75823 8.1515L1.69937 1.7H0V0H2.77847L3.57717 1.7H16.1525C16.7983 1.7 17.2061 2.397 16.8917 2.958L13.8499 8.4745ZM14.708 3.4H4.38437L6.39812 7.65H12.3629L14.708 3.4ZM5.09811 13.6C4.16345 13.6 3.40723 14.365 3.40723 15.3C3.40723 16.235 4.16345 17 5.09811 17C6.03276 17 6.79747 16.235 6.79747 15.3C6.79747 14.365 6.03276 13.6 5.09811 13.6ZM11.9041 15.3C11.9041 14.365 12.6603 13.6 13.595 13.6C14.5296 13.6 15.2943 14.365 15.2943 15.3C15.2943 16.235 14.5296 17 13.595 17C12.6603 17 11.9041 16.235 11.9041 15.3Z" fill="white"/>
</mask>
<g mask="url(#mask0)">
<rect width="17.2073" height="17" fill="white"/>
</g>
</svg>
