<svg width="50" height="50" viewBox="0 0 50 50" fill="none" xmlns="http://www.w3.org/2000/svg">
<path fill-rule="evenodd" clip-rule="evenodd" d="M41.9424 0.917927L49.413 16.0907L49.8399 16.9006C49.9466 17.1166 50 17.3326 50 17.6026V19.0605V48.3801C50 49.2981 49.3063 50 48.3991 50H1.60085C0.693703 50 0 49.2981 0 48.3801V19.0605V17.6026C0 17.3866 0.0533618 17.1166 0.160085 16.9006L0.533618 16.0907L8.00427 0.917927C8.27108 0.323974 8.85806 0 9.44504 0H40.5016C41.1419 0 41.6756 0.37797 41.9424 0.917927ZM39.4595 3H26V16H46L39.4595 3ZM10.6125 3H24V16H4L10.6125 3ZM3 47H46.9469V19H3V47Z" fill="#363E4A"/>
<path d="M32.4324 43H17.5676C16.7027 43 16 42.3058 16 41.4515V33.5485C16 32.6942 16.7027 32 17.5676 32H32.3784C33.2432 32 34 32.6942 34 33.5485V41.3981C34 42.3058 33.2973 43 32.4324 43Z" fill="#363E4A"/>
</svg>
