<svg width="12" height="16" viewBox="0 0 12 16" fill="none" xmlns="http://www.w3.org/2000/svg">
<path fill-rule="evenodd" clip-rule="evenodd" d="M9.39443 6.33333H10.8889C11.3472 6.33333 11.8852 6.87167 11.8852 7.3325V13.8333C11.8852 14.2908 11.529 14.7825 11.094 14.9217L10.101 15.2442C9.66676 15.3842 8.93697 15.5 8.48116 15.5H3.66573C3.2091 15.5 2.48014 15.3842 2.04509 15.245L1.05128 14.9225C0.617064 14.7825 0.261719 14.2908 0.261719 13.8333V7.3325C0.261719 6.87167 0.632839 6.33333 1.09197 6.33333H2.75246V4.33333C2.75246 1.91917 3.86001 0.5 6.07345 0.5C8.28606 0.5 9.39443 1.91917 9.39443 4.33333V6.33333ZM4.41295 3.99917V6.33333H7.73394V3.99917C7.73394 2.795 7.07223 2.16667 6.07345 2.16667C5.07466 2.16667 4.41295 2.795 4.41295 3.99917Z" fill="black"/>
<mask id="mask0" mask-type="alpha" maskUnits="userSpaceOnUse" x="0" y="0" width="12" height="16">
<path fill-rule="evenodd" clip-rule="evenodd" d="M9.39443 6.33333H10.8889C11.3472 6.33333 11.8852 6.87167 11.8852 7.3325V13.8333C11.8852 14.2908 11.529 14.7825 11.094 14.9217L10.101 15.2442C9.66676 15.3842 8.93697 15.5 8.48116 15.5H3.66573C3.2091 15.5 2.48014 15.3842 2.04509 15.245L1.05128 14.9225C0.617064 14.7825 0.261719 14.2908 0.261719 13.8333V7.3325C0.261719 6.87167 0.632839 6.33333 1.09197 6.33333H2.75246V4.33333C2.75246 1.91917 3.86001 0.5 6.07345 0.5C8.28606 0.5 9.39443 1.91917 9.39443 4.33333V6.33333ZM4.41295 3.99917V6.33333H7.73394V3.99917C7.73394 2.795 7.07223 2.16667 6.07345 2.16667C5.07466 2.16667 4.41295 2.795 4.41295 3.99917Z" fill="white"/>
</mask>
<g mask="url(#mask0)">
<rect x="-3.88867" y="-2" width="20.1689" height="20" fill="#BBBBBB"/>
</g>
</svg>
