<svg width="16" height="16" viewBox="0 0 16 16" fill="none" xmlns="http://www.w3.org/2000/svg">
<path fill-rule="evenodd" clip-rule="evenodd" d="M9.38017 9.97061C8.46083 10.7593 7.30562 11.1928 6.08253 11.1928C4.72411 11.1928 3.44714 10.6625 2.48623 9.69994C0.504591 7.71321 0.504591 4.48006 2.48623 2.49333C3.44671 1.5303 4.72368 1 6.08211 1C7.44053 1 8.7175 1.5303 9.67799 2.49333C11.554 4.37358 11.6516 7.3683 9.97708 9.36818L14.4499 13.852C14.6153 14.0179 14.6149 14.2864 14.449 14.4519C14.3663 14.5346 14.2577 14.5758 14.1495 14.5758C14.0409 14.5758 13.9319 14.5342 13.8491 14.451L9.38017 9.97061ZM6.08253 1.84848C4.95108 1.84848 3.8875 2.29012 3.08738 3.09236C1.43538 4.74903 1.43538 7.44424 3.08738 9.10091C3.8875 9.90315 4.95108 10.3448 6.08253 10.3448C7.21398 10.3448 8.27756 9.90315 9.07768 9.10091C10.7301 7.44424 10.7301 4.74903 9.07768 3.09236C8.27756 2.29012 7.21398 1.84848 6.08253 1.84848Z" fill="white"/>
<path d="M9.38017 9.97061L9.73417 9.61751L9.40663 9.28913L9.05461 9.59111L9.38017 9.97061ZM2.48623 9.69994L2.13222 10.053L2.13236 10.0532L2.48623 9.69994ZM2.48623 2.49333L2.84023 2.84643L2.84025 2.84642L2.48623 2.49333ZM9.67799 2.49333L9.32396 2.84642L9.32403 2.84649L9.67799 2.49333ZM9.97708 9.36818L9.59371 9.04719L9.30026 9.39767L9.62309 9.7213L9.97708 9.36818ZM14.4499 13.852L14.8039 13.4989L14.8039 13.4989L14.4499 13.852ZM14.449 14.4519L14.0959 14.0979L14.0955 14.0983L14.449 14.4519ZM13.8491 14.451L14.2036 14.0984L14.2031 14.0979L13.8491 14.451ZM3.08738 3.09236L2.73336 2.73928L2.73333 2.73931L3.08738 3.09236ZM3.08738 9.10091L2.73333 9.45396L2.73336 9.45399L3.08738 9.10091ZM9.07768 9.10091L8.72368 8.74781L8.72366 8.74782L9.07768 9.10091ZM9.07768 3.09236L8.72366 3.44545L8.72368 3.44546L9.07768 3.09236ZM6.08253 11.6928C7.42611 11.6928 8.69655 11.2158 9.70572 10.3501L9.05461 9.59111C8.22512 10.3027 7.18514 10.6928 6.08253 10.6928V11.6928ZM2.13236 10.0532C3.18688 11.1096 4.59108 11.6928 6.08253 11.6928V10.6928C4.85713 10.6928 3.7074 10.2155 2.84009 9.3467L2.13236 10.0532ZM2.13222 2.14023C-0.0440736 4.32212 -0.0440736 7.87115 2.13222 10.053L2.84023 9.34684C1.05326 7.55527 1.05326 4.638 2.84023 2.84643L2.13222 2.14023ZM6.08211 0.5C4.59066 0.5 3.18637 1.08329 2.13221 2.14025L2.84025 2.84642C3.70706 1.97731 4.8567 1.5 6.08211 1.5V0.5ZM10.032 2.14025C8.97785 1.08329 7.57355 0.5 6.08211 0.5V1.5C7.30751 1.5 8.45716 1.97731 9.32396 2.84642L10.032 2.14025ZM10.3604 9.68917C12.1991 7.49322 12.0929 4.20584 10.0319 2.14018L9.32403 2.84649C11.015 4.54131 11.104 7.24339 9.59371 9.04719L10.3604 9.68917ZM14.8039 13.4989L10.3311 9.01506L9.62309 9.7213L14.0959 14.2051L14.8039 13.4989ZM14.8021 14.8059C15.1634 14.4455 15.1645 13.8604 14.8039 13.4989L14.0959 14.2051C14.0662 14.1753 14.0664 14.1273 14.0959 14.0979L14.8021 14.8059ZM14.1495 15.0758C14.3841 15.0758 14.6218 14.9862 14.8026 14.8054L14.0955 14.0983C14.1108 14.083 14.1312 14.0758 14.1495 14.0758V15.0758ZM13.4947 14.8037C13.6753 14.9853 13.9138 15.0758 14.1495 15.0758V14.0758C14.168 14.0758 14.1884 14.0831 14.2036 14.0984L13.4947 14.8037ZM9.02616 10.3237L13.4951 14.8041L14.2031 14.0979L9.73417 9.61751L9.02616 10.3237ZM3.4414 3.44545C4.14784 2.73713 5.08409 2.34848 6.08253 2.34848V1.34848C4.81806 1.34848 3.62716 1.84311 2.73336 2.73928L3.4414 3.44545ZM3.44143 8.74785C1.98403 7.28634 1.98403 4.90694 3.44143 3.44542L2.73333 2.73931C0.886729 4.59112 0.886729 7.60215 2.73333 9.45396L3.44143 8.74785ZM6.08253 9.84479C5.08409 9.84479 4.14784 9.45614 3.4414 8.74782L2.73336 9.45399C3.62716 10.3502 4.81806 10.8448 6.08253 10.8448V9.84479ZM8.72366 8.74782C8.01722 9.45614 7.08097 9.84479 6.08253 9.84479V10.8448C7.347 10.8448 8.5379 10.3502 9.4317 9.45399L8.72366 8.74782ZM8.72368 3.44546C10.1814 4.90697 10.1814 7.2863 8.72368 8.74781L9.43169 9.45401C11.2788 7.60218 11.2788 4.59109 9.43169 2.73926L8.72368 3.44546ZM6.08253 2.34848C7.08097 2.34848 8.01722 2.73713 8.72366 3.44545L9.4317 2.73928C8.5379 1.84311 7.347 1.34848 6.08253 1.34848V2.34848Z" fill="white"/>
</svg>
