<svg width="15" height="12" viewBox="0 0 15 12" fill="none" xmlns="http://www.w3.org/2000/svg">
<path fill-rule="evenodd" clip-rule="evenodd" d="M15 0.8C15 0.358172 14.6418 0 14.2 0H0.8C0.358172 0 0 0.358172 0 0.8V1.2C0 1.64183 0.358172 2 0.8 2H14.2C14.6418 2 15 1.64183 15 1.2V0.8ZM10 5.8C10 5.35817 9.64183 5 9.2 5H0.8C0.358173 5 0 5.35817 0 5.8V6.2C0 6.64183 0.358172 7 0.8 7H9.2C9.64183 7 10 6.64183 10 6.2V5.8ZM11.2 10C11.6418 10 12 10.3582 12 10.8V11.2C12 11.6418 11.6418 12 11.2 12H0.8C0.358172 12 0 11.6418 0 11.2V10.8C0 10.3582 0.358172 10 0.8 10H11.2Z" fill="#222222"/>
<mask id="mask0" mask-type="alpha" maskUnits="userSpaceOnUse" x="0" y="0" width="15" height="12">
<path fill-rule="evenodd" clip-rule="evenodd" d="M15 0.8C15 0.358172 14.6418 0 14.2 0H0.8C0.358172 0 0 0.358172 0 0.8V1.2C0 1.64183 0.358172 2 0.8 2H14.2C14.6418 2 15 1.64183 15 1.2V0.8ZM10 5.8C10 5.35817 9.64183 5 9.2 5H0.8C0.358173 5 0 5.35817 0 5.8V6.2C0 6.64183 0.358172 7 0.8 7H9.2C9.64183 7 10 6.64183 10 6.2V5.8ZM11.2 10C11.6418 10 12 10.3582 12 10.8V11.2C12 11.6418 11.6418 12 11.2 12H0.8C0.358172 12 0 11.6418 0 11.2V10.8C0 10.3582 0.358172 10 0.8 10H11.2Z" fill="white"/>
</mask>
<g mask="url(#mask0)">
<rect width="15.1829" height="12" fill="#363E4A"/>
</g>
</svg>
