<svg width="19" height="19" viewBox="0 0 19 19" fill="none" xmlns="http://www.w3.org/2000/svg">
<mask id="mask0" mask-type="alpha" maskUnits="userSpaceOnUse" x="0" y="0" width="19" height="19">
<path fill-rule="evenodd" clip-rule="evenodd" d="M2.375 2.375H8.3125V0H2.375C1.06875 0 0 1.06875 0 2.375V8.3125H2.375V2.375ZM13.0625 4.75C13.7156 4.75 14.25 5.28438 14.25 5.9375C14.25 6.59062 13.7156 7.125 13.0625 7.125C12.4094 7.125 11.875 6.59062 11.875 5.9375C11.875 5.28438 12.4094 4.75 13.0625 4.75ZM6.53125 11.6256L8.65687 14.1669L11.6256 10.3431L15.4375 15.4375H3.5625L6.53125 11.6256ZM10.6875 16.625H16.625V10.6875H19V16.625C19 17.9312 17.9312 19 16.625 19H10.6875V16.625ZM2.375 10.6875H0V16.625C0 17.9312 1.06875 19 2.375 19H8.3125V16.625H2.375V10.6875ZM10.6875 0H16.625C17.9312 0 19 1.06875 19 2.375V8.3125H16.625V2.375H10.6875V0Z" fill="white"/>
</mask>
<g mask="url(#mask0)">
<rect width="19.2317" height="19.6552" fill="#0E65D8"/>
</g>
</svg>
