<svg width="14" height="12" viewBox="0 0 14 12" fill="none" xmlns="http://www.w3.org/2000/svg">
<path fill-rule="evenodd" clip-rule="evenodd" d="M9.8 0C8.81308 0 7.88613 0.326731 7.15388 0.891699L7 1.01638L6.84612 0.891699C6.11387 0.326731 5.18692 0 4.2 0C1.88032 0 0 1.78796 0 3.99335C0 6.58914 2.05632 9.07233 6.0221 11.5121C6.61718 11.8782 7.38285 11.8782 7.97794 11.5121C11.9437 9.07232 14 6.58914 14 3.99335C14 1.78796 12.1197 0 9.8 0ZM12.1333 3.96147C12.1333 5.73782 10.5646 7.70128 7.2931 9.78882L7.00002 9.97333L6.70693 9.78882C3.43546 7.70129 1.86667 5.73782 1.86667 3.96147C1.86667 2.77501 2.87799 1.81333 4.12533 1.81333C4.9558 1.81333 5.70613 2.24251 6.10221 2.92125C6.4932 3.59129 7.5068 3.59129 7.89779 2.92125C8.29387 2.24251 9.0442 1.81333 9.87467 1.81333C11.122 1.81333 12.1333 2.77501 12.1333 3.96147Z" fill="#363E4A"/>
<mask id="mask0" mask-type="alpha" maskUnits="userSpaceOnUse" x="0" y="0" width="14" height="12">
<path fill-rule="evenodd" clip-rule="evenodd" d="M9.8 0C8.81308 0 7.88613 0.326731 7.15388 0.891699L7 1.01638L6.84612 0.891699C6.11387 0.326731 5.18692 0 4.2 0C1.88032 0 0 1.78796 0 3.99335C0 6.58914 2.05632 9.07233 6.0221 11.5121C6.61718 11.8782 7.38285 11.8782 7.97794 11.5121C11.9437 9.07232 14 6.58914 14 3.99335C14 1.78796 12.1197 0 9.8 0ZM12.1333 3.96147C12.1333 5.73782 10.5646 7.70128 7.2931 9.78882L7.00002 9.97333L6.70693 9.78882C3.43546 7.70129 1.86667 5.73782 1.86667 3.96147C1.86667 2.77501 2.87799 1.81333 4.12533 1.81333C4.9558 1.81333 5.70613 2.24251 6.10221 2.92125C6.4932 3.59129 7.5068 3.59129 7.89779 2.92125C8.29387 2.24251 9.0442 1.81333 9.87467 1.81333C11.122 1.81333 12.1333 2.77501 12.1333 3.96147Z" fill="white"/>
</mask>
<g mask="url(#mask0)">
<rect width="14.1707" height="12" fill="#EB3454"/>
</g>
</svg>
