<svg width="34" height="34" viewBox="0 0 34 34" fill="none" xmlns="http://www.w3.org/2000/svg">
<mask id="mask0" mask-type="alpha" maskUnits="userSpaceOnUse" x="0" y="0" width="34" height="34">
<path fill-rule="evenodd" clip-rule="evenodd" d="M4.25 4.25H14.875V0H4.25C1.9125 0 0 1.9125 0 4.25V14.875H4.25V4.25ZM23.375 8.5C24.5438 8.5 25.5 9.45625 25.5 10.625C25.5 11.7937 24.5438 12.75 23.375 12.75C22.2062 12.75 21.25 11.7937 21.25 10.625C21.25 9.45625 22.2062 8.5 23.375 8.5ZM11.6875 20.8037L15.4913 25.3512L20.8038 18.5087L27.625 27.625H6.375L11.6875 20.8037ZM19.125 29.75H29.75V19.125H34V29.75C34 32.0875 32.0875 34 29.75 34H19.125V29.75ZM4.25 19.125H0V29.75C0 32.0875 1.9125 34 4.25 34H14.875V29.75H4.25V19.125ZM19.125 0H29.75C32.0875 0 34 1.9125 34 4.25V14.875H29.75V4.25H19.125V0Z" fill="white"/>
</mask>
<g mask="url(#mask0)">
<rect width="34.4146" height="35.1724" fill="#363E4A"/>
</g>
</svg>
