<svg width="22" height="19" viewBox="0 0 22 19" fill="none" xmlns="http://www.w3.org/2000/svg">
<path d="M11.2364 1.67952C12.363 0.810341 13.7891 0.307678 15.3074 0.307678C18.8761 0.307678 21.7689 3.05839 21.7689 6.4513C21.7689 10.4448 18.6054 14.2651 12.5042 18.0186C11.5887 18.5818 10.4107 18.5818 9.49523 18.0186C3.39404 14.2651 0.230469 10.4448 0.230469 6.4513C0.230469 3.05839 3.12327 0.307678 6.69201 0.307678C8.21035 0.307678 9.63643 0.810341 10.763 1.67952L10.9997 1.87134L11.2364 1.67952Z" fill="#363E4A"/>
<mask id="mask0" mask-type="alpha" maskUnits="userSpaceOnUse" x="0" y="0" width="22" height="19">
<path d="M11.2364 1.67952C12.363 0.810341 13.7891 0.307678 15.3074 0.307678C18.8761 0.307678 21.7689 3.05839 21.7689 6.4513C21.7689 10.4448 18.6054 14.2651 12.5042 18.0186C11.5887 18.5818 10.4107 18.5818 9.49523 18.0186C3.39404 14.2651 0.230469 10.4448 0.230469 6.4513C0.230469 3.05839 3.12327 0.307678 6.69201 0.307678C8.21035 0.307678 9.63643 0.810341 10.763 1.67952L10.9997 1.87134L11.2364 1.67952Z" fill="white"/>
</mask>
<g mask="url(#mask0)">
<rect x="0.230469" y="0.307678" width="21.8011" height="18.4615" fill="#EB3454"/>
</g>
</svg>
